Coordinates
version=1
nRows=21
nColumns=12
inDegrees=yes

Units are S.I. units (second, meters, Newtons, ...)
Angles are in degrees

endheader
time	SC_y	SC_z	SC_x	AC_y	AC_z	AC_x	GH_y	GH_z	GH_yy	EL_x	PS_y
       0.0               -40.4          32.16          14.24          69.01         -13.74          4.323          -26.3          26.72         -32.64          129.8          65.63
  0.004035               -40.4          32.16          14.25          69.01         -13.73          4.323         -26.29          26.72         -32.61          129.8          65.63
  0.008069               -40.4          32.16          14.25           69.0         -13.73          4.322         -26.28          26.72         -32.58          129.8          65.63
    0.0121              -40.39          32.16          14.26           69.0         -13.73          4.322         -26.27          26.72         -32.55          129.8          65.62
   0.01614              -40.39          32.16          14.27           69.0         -13.73          4.322         -26.26          26.73         -32.52          129.8          65.62
   0.02017              -40.39          32.16          14.27          68.99         -13.72          4.322         -26.24          26.73         -32.49          129.8          65.61
   0.02421              -40.38          32.16          14.28          68.99         -13.72          4.321         -26.23          26.73         -32.45          129.8          65.61
   0.02824              -40.38          32.16          14.29          68.98         -13.72          4.321         -26.22          26.73         -32.41          129.8           65.6
   0.03228              -40.37          32.16           14.3          68.98         -13.71          4.321          -26.2          26.74         -32.37          129.8           65.6
   0.03631              -40.37          32.16          14.31          68.97         -13.71          4.321         -26.19          26.74         -32.33          129.8          65.59
   0.04035              -40.36          32.16          14.32          68.97         -13.71           4.32         -26.17          26.74         -32.28          129.7          65.58
   0.04438              -40.36          32.17          14.33          68.96          -13.7           4.32         -26.15          26.75         -32.23          129.7          65.58
   0.04842              -40.35          32.17          14.35          68.95          -13.7           4.32         -26.13          26.75         -32.17          129.7          65.57
   0.05245              -40.35          32.17          14.36          68.94         -13.69          4.319         -26.11          26.75         -32.11          129.7          65.56
   0.05648              -40.34          32.17          14.38          68.94         -13.69          4.319         -26.09          26.76         -32.04          129.7          65.55
   0.06052              -40.33          32.17          14.39          68.93         -13.68          4.318         -26.07          26.76         -31.97          129.7          65.54
   0.06455              -40.32          32.17          14.41          68.92         -13.68          4.318         -26.04          26.77          -31.9          129.6          65.53
   0.06859              -40.31          32.17          14.43          68.91         -13.67          4.317         -26.01          26.78         -31.81          129.6          65.52
   0.07262               -40.3          32.18          14.45          68.89         -13.66          4.317         -25.98          26.78         -31.72          129.6          65.51
   0.07666              -40.29          32.18          14.47          68.88         -13.65          4.316         -25.94          26.79         -31.62          129.6          65.49
   0.08069              -40.28          32.18           14.5          68.87         -13.64          4.315         -25.91           26.8         -31.51          129.5          65.48
